<svg xmlns="http://www.w3.org/2000/svg" fill="#2b6cb0" width="600" height="600" viewBox="0 0 158.75 158.75"><path d="M79.287 53.802c17.328 1.27 30.676 11.922 31.183 24.848l.014.74c-.028 13.205-13.506 24.26-31.197 25.557z" stroke="#2b6cb0" stroke-width="6.58" paint-order="stroke fill markers"/><path d="M47.43 6.733l.002 101.684 16.932.002V24.624c35.228 5.662 60.003 28.165 61.008 53.21l.03 1.583c-.066 25.642-25.02 48.943-61.04 54.715h-16.93l.001 17.885 9.114-.668c47.552-3.487 85.7-33.673 85.793-71.917v-.084l-.042-2.087c-1.47-37.44-39.172-66.433-85.752-69.87z" paint-order="stroke fill markers"/><path d="M47.43 6.733l14.7 8.023L31.1 66.532 16.4 58.51z"/></svg>