<svg xmlns="http://www.w3.org/2000/svg" width="720" height="380"><path fill="#c3c3c3" d="M0 0h720v380H0z"/><path d="M462.222 105H257.778c-7.066 0-12.778 5.428-12.778 12.143v145.714c0 6.703 5.712 12.143 12.778 12.143h204.444c7.066 0 12.778-5.44 12.778-12.143V117.143c0-6.703-5.712-12.143-12.778-12.143zm-60.695 42.502c8.817 0 15.972 6.8 15.972 15.18s-7.155 15.18-15.972 15.18-15.972-6.8-15.972-15.18 7.155-15.18 15.972-15.18zm-118.196 91.074l42.346-92.517 48.16 74.095 41.285-19.49 21.543 37.9H283.333z" fill="#b3b3b3"/></svg>